<svg xmlns="http://www.w3.org/2000/svg" data-name="Layer 1" viewBox="0 0 1200 1200" id="home">
    <path fill="none" stroke="#191919" stroke-miterlimit="10" stroke-width="70"
        d="M1075,600V816.7c0,153.56-124.49,278-278.05,278H403.09c-153.56,0-278-124.49-278-278V605.44"></path>
    <path fill="none" stroke="#191919" stroke-miterlimit="10" stroke-width="70"
        d="M1091.73,419.24,741.53,154.78c-87.45-66-195.61-66-283.06,0L108.27,419.24c-65.8,70.26-24.24,200.55,64,200.55h855.52C1116,619.79,1157.53,489.5,1091.73,419.24Z"></path>
    <path fill="none" stroke="#191919" stroke-miterlimit="10" stroke-width="70"
        d="M837.48 233.89V175.51a70.26 70.26 0 0 1 70.25-70.26h57.39a70.26 70.26 0 0 1 70.26 70.26v187M538.1 738.53H661.9A135.5 135.5 0 0 1 797.4 874v220.72a0 0 0 0 1 0 0H402.6a0 0 0 0 1 0 0V874A135.5 135.5 0 0 1 538.1 738.53z"></path>
    <rect width="1200" height="1200" fill="none"></rect>
</svg>