<svg xmlns="http://www.w3.org/2000/svg" version="1.1" xmlns:xlink="http://www.w3.org/1999/xlink"
    xmlns:svgjs="http://svgjs.dev/svgjs" width="2000" height="828" viewBox="0 0 2000 828">
    <g transform="matrix(1,0,0,1,-1.2112696095522324,-0.6697518811956229)">
        <svg viewBox="0 0 396 164" data-background-color="#ffffff"
            preserveAspectRatio="xMidYMid meet" height="828" width="2000"
            xmlns="http://www.w3.org/2000/svg" xmlns:xlink="http://www.w3.org/1999/xlink">
            <g id="tight-bounds" transform="matrix(1,0,0,1,0.24008861730862918,0.13287734006758)">
                <svg viewBox="0 0 395.52 163.73446649022696" height="163.73446649022696"
                    width="395.52">
                    <g>
                        <svg viewBox="0 0 395.52 163.73446649022696" height="163.73446649022696"
                            width="395.52">
                            <g>
                                <svg viewBox="0 0 395.52 163.73446649022696"
                                    height="163.73446649022696" width="395.52">
                                    <g>
                                        <svg viewBox="0 0 395.52 163.73446649022696"
                                            height="163.73446649022696" width="395.52">
                                            <g id="textblocktransform">
                                                <svg viewBox="0 0 395.52 163.73446649022696"
                                                    height="163.73446649022696" width="395.52"
                                                    id="textblock">
                                                    <g>
                                                        <svg viewBox="0 0 395.52 123.07341201653412"
                                                            height="123.07341201653412"
                                                            width="395.52">
                                                            <path
                                                                d="M394.594 26.397C392.735 13.622 387.435 10.07 387.435 10.07 371.165-3.088 350.86-0.252 332.619 1.639 300.414 1.716 268.339 4.526 236.208 6.034 168.767 6.264 100.749 2.482 33.643 11.808 27.339 14.669-6.54 12.37 1.121 28.032 3.129 34.547 10.456 41.778 10.232 47.757 11.236 48.804 12.631 46.403 13.226 47.91 15.309 51.972 18.711 50.056 21.501 52.458 17.614 58.871 20.403 64.211 23.062 69.806 18.377 71.263 12.371 70.573 9.675 75.402 9.396 78.902 7.89 78.238 6.235 78.084 5.026 77.982 2.59 78.365 2.999 79.464 4.394 83.22-1.594 85.392 2.162 89.071-0.422 93.057 3.948 96.506 3.353 100.824 3.278 101.693 3.687 102.434 4.338 102.638 7.22 103.737 3.018 105.883 3.464 108.208 33.029 124.1 65.104 113.113 95.394 120.421 103.259 115.311 97.346 122.235 100.489 121.162 102.943 119.91 104.728 125.096 107.499 122.158 107.927 121.315 107.276 119.322 108.8 119.705 109.6 119.91 110.307 119.859 110.418 118.683 110.586 116.92 109.117 118.019 108.726 117.099 112.947 112.449 111.906 123.512 115.866 123.052 115.68 121.698 114.528 119.756 116.889 120.012 119.232 118.07 119.306 116.46 121.389 120.83 121.463 121.775 121.835 122.439 122.43 122.899 128.938 118.147 135.409 124.585 142.233 122.439 146.417 120.089 150.433 123.717 154.672 122.822 156.16 122.107 157.666 120.83 159.098 122.976 176.632 123.436 195.319 121.519 211.943 123.052 256.364 120.191 303.836 124.228 350.674 120.446 361.719 118.99 373.192 116.92 383.958 115.26 383.958 115.26 392.679 110.712 392.679 90.272S394.538 72.387 394.817 56.111C395.096 39.836 396.398 39.172 394.538 26.397Z"
                                                                opacity="1" fill="#41907a"
                                                                data-fill-palette-color="tertiary"></path>
                                                            <g
                                                                transform="matrix(1,0,0,1,55.76832,26.068561146666667)">
                                                                <svg width="283.98335999999995"
                                                                    viewBox="2.32 -36.08 145.52 36.35"
                                                                    height="70.93628972320079"
                                                                    data-palette-color="#ffffff">
                                                                    <path
                                                                        d="M20.34-14.79L20.34-14.79 20.34-14.97Q20.34-15.11 20.03-16.49 19.73-17.87 19.59-18.36 19.46-18.85 18.74-22.06 18.02-25.27 17.14-27.16 16.26-29.05 16.1-29.05 15.94-29.05 15.09-27.12L15.09-27.12Q10.89-17.53 10.89-14.75L10.89-14.75 10.89-14.6Q10.89-13.92 13.13-13.92L13.13-13.92 14.18-13.92 14.4-13.94 16.53-13.92 17.58-13.92 17.77-13.94 18.16-13.94 18.95-13.99Q20.34-13.99 20.34-14.79ZM29.27-2.34L29.27-2.34 29.27-1.9Q29.27-0.95 27.8-0.95 26.32-0.95 25.26-2.17 24.19-3.39 23.12-6.01 22.05-8.62 21.53-9.11L21.53-9.11Q20.39-10.18 16.85-10.18L16.85-10.18Q11.43-10.18 9.89-9.2L9.89-9.2Q8.96-8.62 7.74-5.71 6.52-2.81 6.35-2.51L6.35-2.51Q5.37-0.95 3.88-0.95L3.88-0.95 3.47-0.95Q2.32-0.95 2.32-2.1L2.32-2.1Q2.32-3 3.96-8.13L3.96-8.13Q9.94-26.9 10.95-29.35 11.96-31.79 13.04-33.14 14.11-34.5 15.86-34.5 17.6-34.5 18.77-33.17 19.95-31.84 21.8-27.32L21.8-27.32Q25.34-18.75 27.66-8.84L27.66-8.84Q27.91-7.81 28.59-5.44 29.27-3.08 29.27-2.34ZM37.52-36.08L37.52-36.08 38.33-36.08Q39.5-36.08 39.91-35.6 40.33-35.11 40.45-34.38 40.57-33.64 40.57-31.1L40.57-31.1 40.45-25.98 40.45-25.12 40.4-23.83 40.4-22.97 40.28-17.77 40.28-16.92 40.26-16.06Q40.26-11.06 40.37-9.85 40.48-8.64 41.14-5.59 41.79-2.54 41.79-2.51L41.79-2.51Q41.79-1.15 41.22-0.6 40.65-0.05 39.16-0.05L39.16-0.05 38.74-0.05Q37.13-0.05 36.37-1.17L36.37-1.17Q35.25-2.81 35.25-5.83L35.25-5.83 35.25-7.4 35.28-7.81 35.32-9.4 35.35-9.81Q35.35-10.23 35.35-10.64L35.35-10.64 35.4-12.35 35.4-13.21 35.45-15.38 35.45-16.24 35.52-18.85 35.52-19.7 35.59-22.73Q35.59-23.17 35.59-23.61L35.59-23.61 35.64-25.32 35.64-26.17 35.69-28.32 35.69-30 35.57-33.18Q35.57-34.72 36.01-35.4 36.45-36.08 37.52-36.08ZM54.24-31.74L54.24-31.27Q54.24-28.74 51.36-28.74L51.36-28.74 51.17-28.74 51.07-28.76 50.34-28.83Q50.24-28.86 50.17-28.86L50.17-28.86Q48.58-28.86 48.58-31.03L48.58-31.03 48.58-31.49Q48.58-32.84 49.19-33.45 49.8-34.06 50.7-34.06L50.7-34.06 51.26-34.13 51.83-34.13 52.66-34.01Q54.17-34.01 54.17-32.3L54.17-32.3 54.24-31.74ZM53.44-11.25L53.44-11.25 54.46-3.76 54.46-3.22 54.44-2.98Q54.44-1.39 53.78-0.73 53.12-0.07 51.22-0.07L51.22-0.07 50.92-0.07Q49.21-0.07 48.75-1.93L48.75-1.93Q48.51-2.88 48.51-9.28L48.51-9.28 48.51-19.73 48.38-21.36 48.38-21.9Q48.38-23.1 48.82-23.56 49.26-24.02 50.21-24.02L50.21-24.02 51.04-24.02Q52.78-24.02 53.17-22.78L53.17-22.78Q53.34-22.24 53.34-18.77L53.34-18.77 53.34-13.5 53.41-12.04Q53.44-11.74 53.44-11.25ZM61.25-19.24L61.25-19.97Q61.25-21.66 61.66-22.47 62.08-23.29 63.2-23.29 64.32-23.29 65.79-22.49 67.25-21.68 67.44-21.68 67.62-21.68 68.25-22.12L68.25-22.12Q70.62-23.78 72.45-23.78L72.45-23.78 73.14-23.78Q74.26-23.78 75.03-23.17 75.8-22.56 75.8-21.45 75.8-20.34 74.82-19.82L74.82-19.82Q74.41-19.6 73.09-19.46 71.77-19.31 70.51-18.82 69.26-18.33 68.28-16.92L68.28-16.92Q66.86-14.84 66.86-8.84L66.86-8.84 66.76-6.1 66.72-4.54Q66.72-2.37 66.02-1.34 65.32-0.32 63.66-0.32L63.66-0.32 63.3-0.32Q61.83-0.32 61.52-1.81L61.52-1.81Q61.49-1.93 61.49-6.45L61.49-6.45 61.49-11.35 61.47-11.77 61.47-12.57 61.44-12.99Q61.44-13.4 61.44-13.82L61.44-13.82 61.35-16.97 61.25-19.24ZM91.27-14.36L91.27-14.36Q92.84-14.36 93.96-15.06L93.96-15.06Q94.57-15.45 94.57-16.63L94.57-16.63 94.57-16.77Q94.57-18.53 93.5-19.74 92.42-20.95 90.44-20.95L90.44-20.95 90.15-20.95Q87.93-20.95 86.06-19.29 84.19-17.63 84.19-15.09L84.19-15.09 84.19-14.67Q84.19-13.92 85.34-13.92L85.34-13.92 85.59-13.87 86.46-13.87 86.61-13.89 87.95-13.99 88.12-14.01 89.03-14.09Q89.2-14.11 89.42-14.14 89.64-14.16 90.31-14.26 90.98-14.36 91.27-14.36ZM89.98 0.27L89.98 0.27 89.42 0.27Q86.95 0.24 84.93-0.63L84.93-0.63Q81.04-2.34 79.68-6.49L79.68-6.49Q78.92-8.81 78.92-11.18L78.92-11.18 78.92-12.28Q78.95-14.75 79.87-17.19L79.87-17.19Q81.78-22.12 86.15-23.73L86.15-23.73Q88.2-24.46 90.35-24.46L90.35-24.46 90.88-24.46Q94.35-24.46 96.65-22.33 98.94-20.19 98.94-16.5L98.94-16.5 98.94-16.02Q98.94-13.43 97.28-12.38L97.28-12.38Q96.01-11.57 91.46-10.91 86.9-10.25 86-9.96L86-9.96Q84.54-9.5 84.54-8.62L84.54-8.62Q84.54-6.4 86.76-4.91L86.76-4.91Q88.05-4.05 90.79-4.05L90.79-4.05Q91.91-4.05 94.29-4.72 96.67-5.4 97.28-5.4L97.28-5.4Q98.72-5.4 98.72-3.93 98.72-2.47 95.93-1.1 93.13 0.27 89.98 0.27ZM123.28-2.17L123.28-2.17Q123.28-0.78 122.01-0.54L122.01-0.54Q119.84-0.12 111.9-0.12L111.9-0.12 108.24-0.07 107.04-0.07Q105.38-0.07 104.96-0.4 104.53-0.73 104.53-1.88L104.53-1.88Q104.53-4.1 110.3-11.62 116.08-19.14 116.08-20.07L116.08-20.07Q116.08-20.75 111.57-20.75 107.07-20.75 106.43-20.92L106.43-20.92Q104.82-21.36 104.82-22.62 104.82-23.88 105.55-24.21 106.29-24.54 109.48-24.54L109.48-24.54 110.73-24.58 115.03-24.58Q119.96-24.58 121.28-24.29 122.59-24 122.59-22.41 122.59-20.83 116.97-13.06 111.34-5.3 111.34-4.71L111.34-4.71Q111.34-3.86 115.22-3.86L115.22-3.86 120.79-4.03Q123.28-4.03 123.28-2.17ZM132.65-6.71L132.65-6.71Q132.65-5.15 134.16-4.1L134.16-4.1Q135.17-3.39 137-3.39L137-3.39 137.14-3.39Q137.58-3.47 138.07-3.47L138.07-3.47Q139.71-3.47 141.01-4.93 142.32-6.4 142.32-7.74L142.32-7.74 142.37-8.03 142.44-9.33 142.44-10.6Q142.44-11.5 141.84-11.83 141.24-12.16 139.56-12.16L139.56-12.16 139.22-12.16 139.05-12.13 138.73-12.13 137.7-12.06Q137.19-11.99 136.87-11.99L136.87-11.99Q135.12-11.99 133.86-10.89 132.6-9.79 132.6-7.96L132.6-7.96 132.6-7.25Q132.65-6.86 132.65-6.71ZM130.92-20.02L130.92-20.02Q129.31-20.02 129.31-21.78L129.31-21.78Q129.31-23 130.99-23.83L130.99-23.83Q133.68-25.17 136.73-25.17L136.73-25.17 137.9-25.17Q140.34-25.17 142.48-24.29 144.61-23.41 145.76-21.58L145.76-21.58Q147.23-19.26 147.23-11.3L147.23-11.3Q147.23-7.1 147.53-5.1 147.84-3.1 147.84-2.17L147.84-2.17Q147.84-0.34 145.49-0.34L145.49-0.34Q144.44-0.34 143.54-0.98 142.64-1.61 142.1-1.61 141.56-1.61 139.24-0.68 136.92 0.24 134.58 0.24L134.58 0.24Q131.28 0.24 129.42-1.83 127.55-3.91 127.55-6.93L127.55-6.93 127.55-7.5Q127.55-11.21 130.77-13.23L130.77-13.23Q132.87-14.55 137.25-15.04 141.64-15.53 141.88-15.82L141.88-15.82Q142.2-16.19 142.2-17.07L142.2-17.07Q142.2-17.33 142.17-17.63L142.17-17.63Q141.86-21.09 137.29-21.12L137.29-21.12Q135.61-21.12 133.6-20.57 131.6-20.02 130.92-20.02Z"
                                                                        opacity="1"
                                                                        transform="matrix(1,0,0,1,0,0)"
                                                                        fill="#ffffff"
                                                                        class="wordmark-text-0"
                                                                        data-fill-palette-color="quaternary"
                                                                        id="text-0"></path>
                                                                </svg>
                                                            </g>
                                                        </svg>
                                                    </g>
                                                    <g
                                                        transform="matrix(1,0,0,1,88.99199999999999,139.81976754922846)">
                                                        <svg
                                                            viewBox="0 0 217.536 23.914698940998484"
                                                            height="23.914698940998484"
                                                            width="217.536">
                                                            <g transform="matrix(1,0,0,1,0,0)">
                                                                <svg width="217.536"
                                                                    viewBox="2.7 -33.5 396.56 43.6"
                                                                    height="23.914698940998484"
                                                                    data-palette-color="#41907a">
                                                                    <path
                                                                        d="M12.85-2.75L12.85-2.75Q16.2-2.75 17.93-4.28 19.65-5.8 19.65-8.2L19.65-8.2Q19.65-10.25 18.32-11.6 17-12.95 14.15-13.75L14.15-13.75 9.8-15.05Q7.7-15.7 6.15-16.73 4.6-17.75 3.78-19.28 2.95-20.8 2.95-22.85L2.95-22.85Q2.95-26.7 5.75-28.88 8.55-31.05 13.2-31.05L13.2-31.05Q15.9-31.05 18.03-30.48 20.15-29.9 21.38-29 22.6-28.1 22.6-27.1L22.6-27.1Q22.6-26.45 22.25-25.93 21.9-25.4 21.35-25.1L21.35-25.1Q20.1-26.1 17.98-26.85 15.85-27.6 13.35-27.6L13.35-27.6Q10.45-27.6 8.75-26.33 7.05-25.05 7.05-22.85L7.05-22.85Q7.05-21.1 8.28-20 9.5-18.9 12.25-18.1L12.25-18.1 15.3-17.2Q19.25-16.1 21.53-14 23.8-11.9 23.8-8.2L23.8-8.2Q23.8-4.25 20.93-1.8 18.05 0.65 12.85 0.65L12.85 0.65Q9.8 0.65 7.53-0.03 5.25-0.7 3.98-1.73 2.7-2.75 2.7-3.75L2.7-3.75Q2.7-4.6 3.23-5.18 3.75-5.75 4.45-6L4.45-6Q5.6-4.9 7.7-3.83 9.8-2.75 12.85-2.75ZM51.35-11.55L51.35-11.55Q51.35-7.85 49.95-5.1 48.55-2.35 46-0.85 43.45 0.65 40 0.65L40 0.65Q36.55 0.65 33.97-0.85 31.4-2.35 30-5.1 28.6-7.85 28.6-11.55L28.6-11.55Q28.6-15.3 30.02-18.03 31.45-20.75 34.02-22.25 36.6-23.75 40-23.75L40-23.75Q43.4-23.75 45.95-22.25 48.5-20.75 49.92-18.03 51.35-15.3 51.35-11.55ZM40-20.45L40-20.45Q36.65-20.45 34.67-18.07 32.7-15.7 32.7-11.55L32.7-11.55Q32.7-7.35 34.62-5 36.55-2.65 40-2.65L40-2.65Q43.4-2.65 45.32-5.03 47.25-7.4 47.25-11.55L47.25-11.55Q47.25-15.7 45.32-18.07 43.4-20.45 40-20.45ZM70.4-18.55L60.9-18.55 60.9-21.8 71.5-21.8Q71.65-21.6 71.8-21.18 71.95-20.75 71.95-20.2L71.95-20.2Q71.95-19.4 71.55-18.98 71.15-18.55 70.4-18.55L70.4-18.55ZM61.59-24.95L61.59-24.95 61.59-19.1 57.65-19.1 57.65-25.15Q57.65-28.1 58.72-29.93 59.8-31.75 61.82-32.63 63.84-33.5 66.65-33.5L66.65-33.5Q69.5-33.5 71.12-32.75 72.75-32 72.75-30.9L72.75-30.9Q72.75-30.35 72.52-29.9 72.3-29.45 71.9-29.05L71.9-29.05Q71-29.55 69.65-29.88 68.3-30.2 67.05-30.2L67.05-30.2Q64-30.2 62.8-28.95 61.59-27.7 61.59-24.95ZM57.65-1.55L57.65-21.3 61.65-21.3 61.65-0.1Q61.4 0 60.9 0.13 60.4 0.25 59.8 0.25L59.8 0.25Q58.75 0.25 58.2-0.18 57.65-0.6 57.65-1.55L57.65-1.55ZM77.54-6.05L77.54-13.2 81.54-13.2 81.54-6.3Q81.54-4.3 82.69-3.48 83.84-2.65 85.84-2.65L85.84-2.65Q86.69-2.65 87.74-2.95 88.79-3.25 89.49-3.65L89.49-3.65Q89.79-3.35 90.04-2.9 90.29-2.45 90.29-1.85L90.29-1.85Q90.29-0.75 88.99-0.05 87.69 0.65 85.39 0.65L85.39 0.65Q81.89 0.65 79.72-0.9 77.54-2.45 77.54-6.05L77.54-6.05ZM88.69-19.3L79.59-19.3 79.59-22.6 89.74-22.6Q89.89-22.4 90.04-21.95 90.19-21.5 90.19-21L90.19-21Q90.19-20.2 89.79-19.75 89.39-19.3 88.69-19.3L88.69-19.3ZM81.54-28.35L81.54-11.7 77.54-11.7 77.54-29.8Q77.79-29.9 78.32-30.03 78.84-30.15 79.44-30.15L79.44-30.15Q80.49-30.15 81.02-29.73 81.54-29.3 81.54-28.35L81.54-28.35ZM110.64-17.2L110.64-17.2Q109.74-14.05 108.72-10.9 107.69-7.75 106.74-5 105.79-2.25 104.99-0.25L104.99-0.25Q104.59 0 104.09 0.15 103.59 0.3 102.74 0.3L102.74 0.3Q101.94 0.3 101.27 0.03 100.59-0.25 100.34-0.85L100.34-0.85Q99.84-1.85 99.22-3.75 98.59-5.65 97.92-8.1 97.24-10.55 96.54-13.18 95.84-15.8 95.27-18.25 94.69-20.7 94.29-22.6L94.29-22.6Q94.64-22.95 95.17-23.25 95.69-23.55 96.44-23.55L96.44-23.55Q97.39-23.55 97.87-23.03 98.34-22.5 98.54-21.35L98.54-21.35Q98.99-19.25 99.56-16.6 100.14-13.95 100.77-11.35 101.39-8.75 101.92-6.68 102.44-4.6 102.69-3.6L102.69-3.6 102.89-3.6Q103.29-4.8 104.14-7.53 104.99-10.25 106.17-13.75 107.34-17.25 108.54-20.85L108.54-20.85Q108.94-21.1 109.49-21.23 110.04-21.35 110.69-21.35L110.69-21.35Q111.59-21.35 112.19-21.03 112.79-20.7 112.99-20.05L112.99-20.05Q114.19-16.6 115.24-13.28 116.29-9.95 117.09-7.38 117.89-4.8 118.24-3.55L118.24-3.55 118.49-3.55Q119.64-8 120.99-13.1 122.34-18.2 123.19-23.1L123.19-23.1Q123.89-23.55 124.89-23.55L124.89-23.55Q125.74-23.55 126.24-23.15 126.74-22.75 126.74-21.9L126.74-21.9Q126.74-21.35 126.42-19.8 126.09-18.25 125.54-16.15 124.99-14.05 124.31-11.68 123.64-9.3 122.94-7.08 122.24-4.85 121.62-3.05 120.99-1.25 120.54-0.25L120.54-0.25Q120.29-0.05 119.72 0.13 119.14 0.3 118.39 0.3L118.39 0.3Q116.34 0.3 115.99-0.65L115.99-0.65Q115.29-2.45 114.39-5.13 113.49-7.8 112.54-10.93 111.59-14.05 110.64-17.2ZM140.79-2.6L140.79-2.6Q142.89-2.6 144.26-3.03 145.64-3.45 146.24-3.85L146.24-3.85 146.24-11.1 140.04-10.45Q137.44-10.25 136.19-9.3 134.94-8.35 134.94-6.55L134.94-6.55Q134.94-4.7 136.41-3.65 137.89-2.6 140.79-2.6ZM140.74-23.75L140.74-23.75Q145.09-23.75 147.64-21.8 150.19-19.85 150.19-15.65L150.19-15.65 150.19-3.8Q150.19-2.7 149.76-2.13 149.34-1.55 148.49-1.05L148.49-1.05Q147.29-0.4 145.29 0.15 143.29 0.7 140.79 0.7L140.79 0.7Q136.09 0.7 133.51-1.15 130.94-3 130.94-6.5L130.94-6.5Q130.94-9.75 133.11-11.48 135.29-13.2 139.14-13.55L139.14-13.55 146.24-14.25 146.24-15.65Q146.24-18.15 144.74-19.3 143.24-20.45 140.69-20.45L140.69-20.45Q138.64-20.45 136.76-19.85 134.89-19.25 133.44-18.5L133.44-18.5Q133.04-18.85 132.71-19.33 132.39-19.8 132.39-20.3L132.39-20.3Q132.39-21.6 133.84-22.3L133.84-22.3Q135.19-23 136.96-23.38 138.74-23.75 140.74-23.75ZM161.49-18.8L161.49-18.8 161.49-10.9 157.49-10.9 157.49-18.5Q157.49-19.65 157.91-20.33 158.34-21 159.34-21.65L159.34-21.65Q160.64-22.5 162.89-23.13 165.14-23.75 167.89-23.75L167.89-23.75Q171.89-23.75 171.89-21.75L171.89-21.75Q171.89-21.25 171.74-20.83 171.59-20.4 171.34-20.1L171.34-20.1Q170.84-20.2 170.04-20.3 169.24-20.4 168.44-20.4L168.44-20.4Q166.14-20.4 164.39-19.93 162.64-19.45 161.49-18.8ZM157.49-1.55L157.49-13.2 161.49-12.6 161.49-0.1Q161.24 0 160.74 0.13 160.24 0.25 159.64 0.25L159.64 0.25Q158.59 0.25 158.04-0.18 157.49-0.6 157.49-1.55L157.49-1.55ZM194.83-11.35L178.03-9 177.83-12.15 192.93-14.2Q192.73-16.95 191.03-18.73 189.33-20.5 186.33-20.5L186.33-20.5Q183.23-20.5 181.21-18.28 179.18-16.05 179.18-11.9L179.18-11.9 179.18-10.8Q179.53-6.8 181.81-4.73 184.08-2.65 188.03-2.65L188.03-2.65Q190.13-2.65 191.83-3.35 193.53-4.05 194.53-4.85L194.53-4.85Q195.08-4.5 195.41-4.03 195.73-3.55 195.73-2.95L195.73-2.95Q195.73-2 194.66-1.18 193.58-0.35 191.81 0.15 190.03 0.65 187.83 0.65L187.83 0.65Q183.98 0.65 181.16-0.75 178.33-2.15 176.81-4.93 175.28-7.7 175.28-11.7L175.28-11.7Q175.28-14.55 176.11-16.78 176.93-19 178.41-20.55 179.88-22.1 181.93-22.93 183.98-23.75 186.38-23.75L186.38-23.75Q189.43-23.75 191.76-22.45 194.08-21.15 195.41-18.82 196.73-16.5 196.73-13.5L196.73-13.5Q196.73-12.4 196.23-11.93 195.73-11.45 194.83-11.35L194.83-11.35ZM213.23-2.2L213.23-18.3 217.28-18.3 217.28-0.4Q217.08-0.35 216.53-0.18 215.98 0 215.43 0L215.43 0Q214.43 0 213.83-0.63 213.23-1.25 213.23-2.2L213.23-2.2ZM217.28-30L217.28-12.4 213.23-12.45 213.23-28.2Q213.23-29.2 213.83-29.8 214.43-30.4 215.43-30.4L215.43-30.4Q215.98-30.4 216.53-30.25 217.08-30.1 217.28-30L217.28-30ZM229.38-13.9L215.43-13.9 215.43-17.3 230.48-17.3Q230.63-17.1 230.78-16.65 230.93-16.2 230.93-15.7L230.93-15.7Q230.93-14.9 230.53-14.4 230.13-13.9 229.38-13.9L229.38-13.9ZM231.18 0L215.43 0 215.43-3.4 232.28-3.4Q232.43-3.2 232.58-2.78 232.73-2.35 232.73-1.8L232.73-1.8Q232.73-1 232.33-0.5 231.93 0 231.18 0L231.18 0ZM230.93-26.95L215.43-26.95 215.43-30.4 232.03-30.4Q232.18-30.2 232.33-29.75 232.48-29.3 232.48-28.8L232.48-28.8Q232.48-28 232.08-27.48 231.68-26.95 230.93-26.95L230.93-26.95ZM259.08-15.25L259.08-15.25 259.08-10.15 255.08-10.15 255.08-15.05Q255.08-17.85 253.5-19.15 251.93-20.45 249.28-20.45L249.28-20.45Q247.28-20.45 245.73-19.95 244.18-19.45 243.08-18.8L243.08-18.8 243.08-10.15 239.08-10.15 239.08-18.6Q239.08-19.65 239.5-20.33 239.93-21 240.98-21.65L240.98-21.65Q242.28-22.4 244.43-23.08 246.58-23.75 249.28-23.75L249.28-23.75Q253.83-23.75 256.45-21.68 259.08-19.6 259.08-15.25ZM239.08-1.55L239.08-12.9 243.08-12.9 243.08-0.1Q242.83 0 242.33 0.13 241.83 0.25 241.23 0.25L241.23 0.25Q240.18 0.25 239.63-0.18 239.08-0.6 239.08-1.55L239.08-1.55ZM255.08-1.55L255.08-12.9 259.08-12.9 259.08-0.1Q258.83 0 258.3 0.13 257.78 0.25 257.23 0.25L257.23 0.25Q256.13 0.25 255.6-0.18 255.08-0.6 255.08-1.55L255.08-1.55ZM276.17-0.7L276.17-0.7Q273.27-0.7 270.82-1.83 268.37-2.95 266.87-5.5 265.37-8.05 265.37-12.25L265.37-12.25Q265.37-16.05 266.85-18.6 268.32-21.15 270.92-22.45 273.52-23.75 276.87-23.75L276.87-23.75Q279.17-23.75 281.1-23.18 283.02-22.6 284.32-21.75L284.32-21.75Q285.07-21.25 285.55-20.63 286.02-20 286.02-19.1L286.02-19.1 286.02-3.65 282.02-3.65 282.02-19.05Q281.17-19.6 279.9-20.03 278.62-20.45 276.87-20.45L276.87-20.45Q273.52-20.45 271.47-18.4 269.42-16.35 269.42-12.3L269.42-12.3Q269.42-7.8 271.5-5.9 273.57-4 276.62-4L276.62-4Q278.82-4 280.17-4.75 281.52-5.5 282.32-6.4L282.32-6.4 282.52-2.85Q281.77-2.05 280.15-1.38 278.52-0.7 276.17-0.7ZM282.02 0.75L282.02 0.75 282.02-4.5 286.02-4.5 286.02 1Q286.02 4.3 284.6 6.3 283.17 8.3 280.7 9.2 278.22 10.1 275.12 10.1L275.12 10.1Q272.62 10.1 270.82 9.55 269.02 9 268.37 8.65L268.37 8.65Q266.87 7.8 266.87 6.5L266.87 6.5Q266.87 5.8 267.2 5.33 267.52 4.85 268.02 4.6L268.02 4.6Q269.07 5.4 271 6.08 272.92 6.75 275.12 6.75L275.12 6.75Q278.47 6.75 280.25 5.3 282.02 3.85 282.02 0.75ZM293.07-30.4L293.07-30.4Q293.07-31.45 293.82-32.18 294.57-32.9 295.67-32.9L295.67-32.9Q296.82-32.9 297.52-32.18 298.22-31.45 298.22-30.4L298.22-30.4Q298.22-29.35 297.52-28.63 296.82-27.9 295.67-27.9L295.67-27.9Q294.57-27.9 293.82-28.63 293.07-29.35 293.07-30.4ZM293.67-1.55L293.67-13.2 297.67-13.2 297.67-0.1Q297.42 0 296.92 0.13 296.42 0.25 295.82 0.25L295.82 0.25Q294.77 0.25 294.22-0.18 293.67-0.6 293.67-1.55L293.67-1.55ZM297.67-21.5L297.67-11.25 293.67-11.25 293.67-23Q293.92-23.1 294.45-23.23 294.97-23.35 295.57-23.35L295.57-23.35Q296.62-23.35 297.15-22.93 297.67-22.5 297.67-21.5L297.67-21.5ZM325.47-15.25L325.47-15.25 325.47-10.15 321.47-10.15 321.47-15.05Q321.47-17.85 319.89-19.15 318.32-20.45 315.67-20.45L315.67-20.45Q313.67-20.45 312.12-19.95 310.57-19.45 309.47-18.8L309.47-18.8 309.47-10.15 305.47-10.15 305.47-18.6Q305.47-19.65 305.89-20.33 306.32-21 307.37-21.65L307.37-21.65Q308.67-22.4 310.82-23.08 312.97-23.75 315.67-23.75L315.67-23.75Q320.22-23.75 322.84-21.68 325.47-19.6 325.47-15.25ZM305.47-1.55L305.47-12.9 309.47-12.9 309.47-0.1Q309.22 0 308.72 0.13 308.22 0.25 307.62 0.25L307.62 0.25Q306.57 0.25 306.02-0.18 305.47-0.6 305.47-1.55L305.47-1.55ZM321.47-1.55L321.47-12.9 325.47-12.9 325.47-0.1Q325.22 0 324.69 0.13 324.17 0.25 323.62 0.25L323.62 0.25Q322.52 0.25 321.99-0.18 321.47-0.6 321.47-1.55L321.47-1.55ZM351.22-11.35L334.42-9 334.22-12.15 349.32-14.2Q349.12-16.95 347.42-18.73 345.72-20.5 342.72-20.5L342.72-20.5Q339.62-20.5 337.59-18.28 335.57-16.05 335.57-11.9L335.57-11.9 335.57-10.8Q335.92-6.8 338.19-4.73 340.47-2.65 344.42-2.65L344.42-2.65Q346.52-2.65 348.22-3.35 349.92-4.05 350.92-4.85L350.92-4.85Q351.47-4.5 351.79-4.03 352.12-3.55 352.12-2.95L352.12-2.95Q352.12-2 351.04-1.18 349.97-0.35 348.19 0.15 346.42 0.65 344.22 0.65L344.22 0.65Q340.37 0.65 337.54-0.75 334.72-2.15 333.19-4.93 331.67-7.7 331.67-11.7L331.67-11.7Q331.67-14.55 332.49-16.78 333.32-19 334.79-20.55 336.27-22.1 338.32-22.93 340.37-23.75 342.77-23.75L342.77-23.75Q345.82-23.75 348.14-22.45 350.47-21.15 351.79-18.82 353.12-16.5 353.12-13.5L353.12-13.5Q353.12-12.4 352.62-11.93 352.12-11.45 351.22-11.35L351.22-11.35ZM377.16-11.35L360.36-9 360.16-12.15 375.26-14.2Q375.06-16.95 373.36-18.73 371.66-20.5 368.66-20.5L368.66-20.5Q365.56-20.5 363.54-18.28 361.51-16.05 361.51-11.9L361.51-11.9 361.51-10.8Q361.86-6.8 364.14-4.73 366.41-2.65 370.36-2.65L370.36-2.65Q372.46-2.65 374.16-3.35 375.86-4.05 376.86-4.85L376.86-4.85Q377.41-4.5 377.74-4.03 378.06-3.55 378.06-2.95L378.06-2.95Q378.06-2 376.99-1.18 375.91-0.35 374.14 0.15 372.36 0.65 370.16 0.65L370.16 0.65Q366.31 0.65 363.49-0.75 360.66-2.15 359.14-4.93 357.61-7.7 357.61-11.7L357.61-11.7Q357.61-14.55 358.44-16.78 359.26-19 360.74-20.55 362.21-22.1 364.26-22.93 366.31-23.75 368.71-23.75L368.71-23.75Q371.76-23.75 374.09-22.45 376.41-21.15 377.74-18.82 379.06-16.5 379.06-13.5L379.06-13.5Q379.06-12.4 378.56-11.93 378.06-11.45 377.16-11.35L377.16-11.35ZM388.86-18.8L388.86-18.8 388.86-10.9 384.86-10.9 384.86-18.5Q384.86-19.65 385.29-20.33 385.71-21 386.71-21.65L386.71-21.65Q388.01-22.5 390.26-23.13 392.51-23.75 395.26-23.75L395.26-23.75Q399.26-23.75 399.26-21.75L399.26-21.75Q399.26-21.25 399.11-20.83 398.96-20.4 398.71-20.1L398.71-20.1Q398.21-20.2 397.41-20.3 396.61-20.4 395.81-20.4L395.81-20.4Q393.51-20.4 391.76-19.93 390.01-19.45 388.86-18.8ZM384.86-1.55L384.86-13.2 388.86-12.6 388.86-0.1Q388.61 0 388.11 0.13 387.61 0.25 387.01 0.25L387.01 0.25Q385.96 0.25 385.41-0.18 384.86-0.6 384.86-1.55L384.86-1.55Z"
                                                                        opacity="1"
                                                                        transform="matrix(1,0,0,1,0,0)"
                                                                        fill="#41907a"
                                                                        class="slogan-text-1"
                                                                        data-fill-palette-color="secondary"
                                                                        id="text-1"></path>
                                                                </svg>
                                                            </g>
                                                        </svg>
                                                    </g>
                                                </svg>
                                            </g>
                                        </svg>
                                    </g>
                                </svg>
                            </g>
                        </svg>
                    </g>
                    <defs></defs>
                </svg>
                <rect width="395.52" height="163.73446649022696" fill="none" stroke="none"
                    visibility="hidden"></rect>
            </g>
        </svg>
    </g>
</svg>